<?xml version="1.0" standalone="no"?>
<!DOCTYPE svg PUBLIC "-//W3C//DTD SVG 20010904//EN"
 "http://www.w3.org/TR/2001/REC-SVG-20010904/DTD/svg10.dtd">
<svg version="1.0" xmlns="http://www.w3.org/2000/svg"
 width="1748.000000pt" height="2480.000000pt" viewBox="0 0 1748.000000 2480.000000"
 preserveAspectRatio="xMidYMid meet">
<metadata>
Created by potrace 1.16, written by Peter Selinger 2001-2019
</metadata>
<g transform="translate(0.000000,2480.000000) scale(0.100000,-0.100000)"
fill="#000000" stroke="none">
<path d="M5390 17534 c-434 -51 -725 -179 -996 -436 -192 -183 -313 -400 -369
-663 -94 -442 -23 -845 213 -1200 242 -365 573 -633 1772 -1435 278 -186 551
-370 607 -408 l102 -71 124 98 c813 644 1277 1269 1513 2038 l37 122 -51 58
c-146 170 -404 392 -871 751 -162 125 -416 326 -565 448 -441 359 -613 484
-792 576 -113 58 -188 84 -306 103 -93 15 -352 27 -418 19z m853 -569 c95 -33
212 -109 374 -243 76 -62 235 -191 353 -286 118 -95 339 -275 490 -402 151
-126 290 -241 308 -254 17 -13 32 -28 32 -33 0 -5 -30 -6 -67 -2 -300 30 -519
160 -978 581 -374 343 -524 459 -711 552 -41 20 -74 40 -74 44 0 11 58 49 88
58 50 15 116 10 185 -15z"/>
<path d="M6580 8715 l0 -335 205 0 205 0 0 133 c0 72 3 223 7 335 l6 202 -211
0 -212 0 0 -335z"/>
<path d="M7466 9015 c-90 -32 -139 -101 -139 -194 0 -146 125 -236 279 -202
157 35 216 221 108 341 -58 64 -160 86 -248 55z"/>
<path d="M9840 8969 c-321 -56 -530 -271 -530 -546 l0 -43 221 0 220 0 -7 22
c-31 98 25 185 144 223 100 33 305 11 452 -48 l56 -23 44 155 c24 86 45 161
48 168 5 16 -51 39 -168 70 -79 21 -124 26 -260 28 -91 2 -190 0 -220 -6z"/>
<path d="M1956 8888 c-10 -129 -26 -414 -26 -462 l0 -46 180 0 180 0 0 95 c0
52 4 95 8 95 5 0 16 -43 26 -95 l18 -95 173 0 172 0 -67 233 c-37 127 -75 258
-84 290 l-17 57 -278 0 -279 0 -6 -72z"/>
<path d="M3245 8948 c-15 -44 -130 -414 -171 -550 -5 -17 7 -18 153 -18 l159
0 24 95 c13 52 28 95 32 95 4 0 8 -43 8 -95 l0 -95 191 0 191 0 -6 68 c-3 37
-8 130 -11 207 -3 77 -8 177 -11 223 l-6 82 -274 0 c-211 0 -276 -3 -279 -12z"/>
<path d="M11093 8751 l-203 -56 0 -127 0 -128 -90 0 -90 0 0 -30 0 -30 445 0
445 0 0 30 0 30 -150 0 -150 0 -2 184 -3 183 -202 -56z"/>
<path d="M4655 8451 c-38 -9 -95 -29 -125 -43 l-55 -26 338 -1 c185 -1 337 1
337 4 0 11 -88 48 -157 66 -96 24 -241 24 -338 0z"/>
<path d="M6069 8456 c-25 -7 -73 -26 -105 -42 l-59 -29 153 -3 c83 -1 221 -1
305 0 l152 3 -55 29 c-30 16 -77 35 -105 42 -62 17 -224 17 -286 0z"/>
<path d="M8590 8451 c-74 -16 -186 -54 -199 -67 -2 -2 156 -4 351 -4 323 0
356 2 362 17 9 22 -5 29 -89 49 -107 26 -319 28 -425 5z"/>
<path d="M12295 8455 c-61 -13 -158 -47 -185 -65 -10 -6 112 -9 360 -9 l375 1
-51 24 c-93 44 -196 64 -323 63 -64 0 -143 -7 -176 -14z"/>
<path d="M14045 8450 c-27 -11 -63 -31 -80 -45 l-30 -24 163 -1 162 0 0 45 0
45 -82 -1 c-57 0 -99 -6 -133 -19z"/>
<path d="M14895 8451 c-38 -9 -95 -29 -125 -43 l-55 -26 338 -1 c185 -1 337 1
337 4 0 11 -88 48 -157 66 -96 24 -241 24 -338 0z"/>
<path d="M7340 8410 l0 -30 205 0 205 0 0 30 0 30 -205 0 -205 0 0 -30z"/>
<path d="M13420 8410 l0 -30 180 0 180 0 0 30 0 30 -180 0 -180 0 0 -30z"/>
</g>
</svg>
